<svg width="56" height="40" viewBox="0 0 56 40" fill="none" xmlns="http://www.w3.org/2000/svg">
<path opacity="0.03" d="M12 0C18.625 0 24 5.375 24 12V24C24 32.875 16.75 40 8 40C5.75 40 4 38.25 4 36C4 33.875 5.75 32 8 32C12.375 32 16 28.5 16 24V23.375C14.625 23.75 13.375 24 12 24C5.25 24 0 18.75 0 12C0 5.375 5.25 0 12 0ZM56 12V24C56 32.875 48.75 40 40 40C37.75 40 36 38.25 36 36C36 33.875 37.75 32 40 32C44.375 32 48 28.5 48 24V23.375C46.625 23.75 45.375 24 44 24C37.25 24 32 18.75 32 12C32 5.375 37.25 0 44 0C50.625 0 56 5.375 56 12Z" fill="white"/>
</svg>
