<svg width="32" height="40" viewBox="0 0 32 40" fill="none" xmlns="http://www.w3.org/2000/svg">
<path d="M19.2016 0C16.3394 0 14.0156 2.32377 14.0156 5.18597C14.0156 8.04818 16.3394 10.3719 19.2016 10.3719C22.0638 10.3719 24.3876 8.04818 24.3876 5.18597C24.3876 2.32377 22.0638 0 19.2016 0ZM19.2016 9.02586C17.0904 9.02586 15.3759 7.31137 15.3759 5.20014C15.3759 3.08891 17.0904 1.37442 19.2016 1.37442C21.3128 1.37442 23.0415 3.08891 23.0415 5.20014C23.0415 7.31137 21.3128 9.02586 19.2016 9.02586Z" fill="url(#paint0_linear_3317_1378)"/>
<path d="M19.1957 2.38086C18.8273 2.38086 18.5156 2.67842 18.5156 3.06099C18.5156 3.42939 18.8132 3.74111 19.1957 3.74111C19.9892 3.74111 20.641 4.3929 20.641 5.18639C20.641 5.55479 20.9386 5.86651 21.3211 5.86651C21.6895 5.86651 22.0013 5.56896 22.0013 5.18639C22.0013 3.64193 20.7402 2.38086 19.1957 2.38086Z" fill="url(#paint1_linear_3317_1378)"/>
<path d="M2.32031 5.18597C2.32031 8.04818 4.64408 10.3719 7.50628 10.3719C10.3685 10.3719 12.6923 8.04818 12.6923 5.18597C12.6923 2.32377 10.3685 0 7.50628 0C4.64408 0 2.32031 2.32377 2.32031 5.18597ZM11.3462 5.18597C11.3462 7.2972 9.63169 9.01169 7.52046 9.01169C5.40924 9.01169 3.69475 7.2972 3.69475 5.18597C3.69475 3.07474 5.40924 1.36026 7.52046 1.36026C9.61752 1.36026 11.3462 3.07474 11.3462 5.18597Z" fill="url(#paint2_linear_3317_1378)"/>
<path d="M6.06338 5.18599C6.06338 4.81758 5.76581 4.50586 5.38324 4.50586C5.01484 4.50586 4.70312 4.80342 4.70312 5.18599C4.70312 6.73044 5.96418 7.99151 7.50864 7.99151C7.87704 7.99151 8.18878 7.69396 8.18878 7.31139C8.18878 6.94298 7.89121 6.63126 7.50864 6.63126C6.71516 6.64543 6.06338 5.99364 6.06338 5.18599Z" fill="url(#paint3_linear_3317_1378)"/>
<path d="M17.07 14.4102H5.35201C4.98361 14.4102 4.67188 14.7077 4.67188 15.0903C4.67188 15.4587 4.96944 15.7704 5.35201 15.7704H17.07C17.4384 15.7704 17.7502 15.4729 17.7502 15.0903C17.7502 14.7077 17.4384 14.4102 17.07 14.4102Z" fill="url(#paint4_linear_3317_1378)"/>
<path d="M7.70411 20.3906H5.35201C4.98361 20.3906 4.67188 20.6882 4.67188 21.0708C4.67188 21.4392 4.96944 21.7509 5.35201 21.7509H7.70411C8.07252 21.7509 8.38425 21.4533 8.38425 21.0708C8.37008 20.6882 8.07252 20.3906 7.70411 20.3906Z" fill="url(#paint5_linear_3317_1378)"/>
<path d="M10.0562 17.4004H5.35201C4.98361 17.4004 4.67188 17.6979 4.67188 18.0805C4.67188 18.4489 4.96944 18.7606 5.35201 18.7606H10.0562C10.4246 18.7606 10.7364 18.4631 10.7364 18.0805C10.7222 17.6979 10.4246 17.4004 10.0562 17.4004Z" fill="url(#paint6_linear_3317_1378)"/>
<path d="M31.1158 13.0788C30.9033 12.9513 30.6483 12.9513 30.4357 13.0788L26.695 15.2325V11.9594C26.695 11.591 26.3975 11.2793 26.0149 11.2793H0.680134C0.311732 11.2793 0 11.5769 0 11.9594V24.4709C0 24.8393 0.297563 25.1511 0.680134 25.1511H10.1169L3.38647 39.0228C3.21644 39.3629 3.35814 39.7596 3.69821 39.9297C3.79739 39.9722 3.89657 40.0005 3.99576 40.0005C4.25081 40.0005 4.49168 39.8588 4.60503 39.6179L11.6188 25.1652H12.3131V39.3204C12.3131 39.6888 12.6107 40.0005 12.9933 40.0005C13.3617 40.0005 13.6734 39.703 13.6734 39.3204V25.1652H14.3677L21.3815 39.6179C21.4949 39.8588 21.7358 40.0005 21.9908 40.0005C22.09 40.0005 22.1892 39.9722 22.2884 39.9297C22.6284 39.7596 22.7701 39.3629 22.6001 39.0228L15.8696 25.1511H26.0007C26.3691 25.1511 26.6808 24.8535 26.6808 24.4709V20.9286L30.4215 23.0823C30.6341 23.2099 30.8891 23.2099 31.1017 23.0823C31.3142 22.9548 31.4417 22.7423 31.4417 22.5014V13.6597C31.4559 13.4189 31.3284 13.1922 31.1158 13.0788ZM30.1098 21.3112L26.3691 19.1574C26.1566 19.0299 25.9015 19.0299 25.689 19.1574C25.4764 19.285 25.3489 19.4975 25.3489 19.7384V23.7766H1.36027V12.6396H25.3489V16.4086C25.3489 16.6495 25.4764 16.8762 25.689 16.9895C25.9015 17.1171 26.1566 17.1171 26.3691 16.9895L30.1098 14.8358V21.3112Z" fill="url(#paint7_linear_3317_1378)"/>
<path d="M21.6656 14.4102H20.6879C20.3195 14.4102 20.0078 14.7077 20.0078 15.0903C20.0078 15.4587 20.3054 15.7704 20.6879 15.7704H21.6656C22.034 15.7704 22.3458 15.4729 22.3458 15.0903C22.3458 14.7077 22.034 14.4102 21.6656 14.4102Z" fill="url(#paint8_linear_3317_1378)"/>
<defs>
<linearGradient id="paint0_linear_3317_1378" x1="-190.525" y1="105.644" x2="173.272" y2="-68.6044" gradientUnits="userSpaceOnUse">
<stop stop-color="#F9B233"/>
<stop offset="1" stop-color="#E6332A"/>
</linearGradient>
<linearGradient id="paint1_linear_3317_1378" x1="-190.745" y1="105.194" x2="173.051" y2="-69.054" gradientUnits="userSpaceOnUse">
<stop stop-color="#F9B233"/>
<stop offset="1" stop-color="#E6332A"/>
</linearGradient>
<linearGradient id="paint2_linear_3317_1378" x1="-192.711" y1="101.088" x2="171.084" y2="-73.1596" gradientUnits="userSpaceOnUse">
<stop stop-color="#F9B233"/>
<stop offset="1" stop-color="#E6332A"/>
</linearGradient>
<linearGradient id="paint3_linear_3317_1378" x1="-192.494" y1="101.54" x2="171.304" y2="-72.7088" gradientUnits="userSpaceOnUse">
<stop stop-color="#F9B233"/>
<stop offset="1" stop-color="#E6332A"/>
</linearGradient>
<linearGradient id="paint4_linear_3317_1378" x1="-188.164" y1="110.582" x2="175.632" y2="-63.6661" gradientUnits="userSpaceOnUse">
<stop stop-color="#F9B233"/>
<stop offset="1" stop-color="#E6332A"/>
</linearGradient>
<linearGradient id="paint5_linear_3317_1378" x1="-186.713" y1="113.617" x2="177.085" y2="-60.6325" gradientUnits="userSpaceOnUse">
<stop stop-color="#F9B233"/>
<stop offset="1" stop-color="#E6332A"/>
</linearGradient>
<linearGradient id="paint6_linear_3317_1378" x1="-187.656" y1="111.645" x2="176.14" y2="-62.6037" gradientUnits="userSpaceOnUse">
<stop stop-color="#F9B233"/>
<stop offset="1" stop-color="#E6332A"/>
</linearGradient>
<linearGradient id="paint7_linear_3317_1378" x1="-184.028" y1="119.21" x2="179.767" y2="-55.0371" gradientUnits="userSpaceOnUse">
<stop stop-color="#F9B233"/>
<stop offset="1" stop-color="#E6332A"/>
</linearGradient>
<linearGradient id="paint8_linear_3317_1378" x1="-186.303" y1="114.466" x2="177.498" y2="-59.7841" gradientUnits="userSpaceOnUse">
<stop stop-color="#F9B233"/>
<stop offset="1" stop-color="#E6332A"/>
</linearGradient>
</defs>
</svg>
