<svg width="46" height="40" viewBox="0 0 46 40" fill="none" xmlns="http://www.w3.org/2000/svg">
<path d="M20 40H44.5462C44.9638 40 45.3173 39.6626 45.3173 39.2289V35.2289C45.3173 35.0201 45.2369 34.8273 45.0924 34.6827C44.9478 34.5382 44.755 34.4578 44.5462 34.4578H40H33.7992C33.9116 34.3454 34.0241 34.249 34.1365 34.1365C37.9116 30.3614 40 25.3333 40 20C40 14.6506 37.9116 9.63855 34.1365 5.86345C30.3614 2.08835 25.3333 0 20 0C14.6506 0 9.63855 2.08835 5.86345 5.86345C2.08835 9.63855 0 14.6667 0 20C0 25.3494 2.08835 30.3614 5.86345 34.1365C9.62249 37.9116 14.6506 40 20 40ZM40.7711 36H43.7751V38.4578H40.7711V36ZM34.0562 36H39.2289V38.4578H34.0562V36ZM19.2289 38.4418C16.4337 38.3293 13.7831 37.5904 11.4378 36.3534L12.6586 34.2329C14.6827 35.2771 16.8996 35.8715 19.2289 35.9839V38.4418ZM32.5301 38.4578H27.7108C29.2369 37.8313 30.6667 36.996 32 36H32.5301V38.4578ZM20.755 38.4418V35.9839C23.0683 35.8715 25.3012 35.2771 27.3253 34.2329L28.5462 36.3534C26.2008 37.5904 23.5663 38.3293 20.755 38.4418ZM29.8795 35.5823L28.6586 33.4618C29.6064 32.8514 30.506 32.1285 31.3092 31.3092C32.1285 30.49 32.8514 29.6064 33.4618 28.6586L35.5823 29.8795C34.1205 32.1767 32.1767 34.1205 29.8795 35.5823ZM36.3534 28.5462L34.2329 27.3253C35.2771 25.3012 35.8715 23.0843 35.9839 20.755H38.4418C38.3293 23.5663 37.5904 26.2008 36.3534 28.5462ZM38.4418 19.2289H35.9839C35.8715 16.9157 35.2771 14.6827 34.2329 12.6586L36.3534 11.4377C37.5904 13.7831 38.3293 16.4177 38.4418 19.2289ZM29.8795 4.40161C32.1767 5.86345 34.1205 7.80723 35.5823 10.1044L33.4618 11.3253C32.8514 10.3775 32.1285 9.47791 31.3092 8.6747C30.49 7.85542 29.6064 7.13253 28.6586 6.52209L29.8795 4.40161ZM20.755 1.54217C23.5502 1.65462 26.2008 2.39357 28.5462 3.63052L27.3253 5.751C25.3012 4.70683 23.0843 4.11245 20.755 4V1.54217ZM34.4578 19.9839C34.4578 27.9679 27.9679 34.4578 19.9839 34.4578C12 34.4578 5.51004 27.9679 5.51004 19.9839C5.51004 12 12 5.51004 19.9839 5.51004C27.9679 5.5261 34.4578 12.0161 34.4578 19.9839ZM19.2289 1.54217V4C16.9157 4.11245 14.6827 4.70683 12.6586 5.751L11.4378 3.63052C13.7831 2.39357 16.4177 1.65462 19.2289 1.54217ZM10.1044 4.40161L11.3253 6.52209C10.3775 7.13253 9.47791 7.85542 8.6747 8.6747C7.85542 9.49397 7.13253 10.3775 6.52208 11.3253L4.40161 10.1044C5.86346 7.80723 7.80723 5.86345 10.1044 4.40161ZM3.63052 11.4377L5.751 12.6586C4.70682 14.6827 4.11245 16.8996 4 19.2289H1.54216C1.65461 16.4177 2.40963 13.7831 3.63052 11.4377ZM1.54216 20.755H4C4.11245 23.0683 4.70682 25.3012 5.751 27.3253L3.63052 28.5462C2.40963 26.2008 1.65461 23.5663 1.54216 20.755ZM6.52208 28.6586C7.13253 29.6064 7.85542 30.506 8.6747 31.3092C9.49397 32.1285 10.3775 32.8514 11.3253 33.4618L10.1044 35.5823C7.80723 34.1205 5.86346 32.1767 4.40161 29.8795L6.52208 28.6586Z" fill="#E27614"/>
<path d="M23.0002 19.9825C23.0002 18.3279 21.6508 16.9785 19.9962 16.9785C18.3416 16.9785 16.9922 18.3279 16.9922 19.9825C16.9922 21.6372 18.3416 22.9865 19.9962 22.9865C21.6508 23.0026 23.0002 21.6532 23.0002 19.9825ZM18.5183 19.9825C18.5183 19.1633 19.1769 18.5046 19.9962 18.5046C20.8155 18.5046 21.4741 19.1633 21.4741 19.9825C21.4741 20.8018 20.8155 21.4604 19.9962 21.4604C19.1769 21.4604 18.5183 20.8018 18.5183 19.9825Z" fill="#E27614"/>
<path d="M19.9962 23.8887C17.5545 23.8887 15.5625 25.8806 15.5625 28.3224C15.5625 30.7642 17.5545 32.7561 19.9962 32.7561C22.438 32.7561 24.43 30.7642 24.43 28.3224C24.43 25.8806 22.438 23.8887 19.9962 23.8887ZM19.9962 31.23C18.3898 31.23 17.0886 29.9288 17.0886 28.3224C17.0886 26.716 18.3898 25.4148 19.9962 25.4148C21.6027 25.4148 22.9039 26.716 22.9039 28.3224C22.9039 29.9288 21.5866 31.23 19.9962 31.23Z" fill="#E27614"/>
<path d="M7.22656 19.9865C7.22656 22.4282 9.21853 24.4202 11.6603 24.4202C14.1021 24.4202 16.094 22.4282 16.094 19.9865C16.094 17.5447 14.1021 15.5527 11.6603 15.5527C9.21853 15.5527 7.22656 17.5447 7.22656 19.9865ZM11.6603 17.0949C13.2667 17.0949 14.5679 18.3961 14.5679 20.0025C14.5679 21.609 13.2667 22.9102 11.6603 22.9102C10.0539 22.9102 8.75267 21.609 8.75267 20.0025C8.75267 18.3961 10.0539 17.0949 11.6603 17.0949Z" fill="#E27614"/>
<path d="M20.0045 16.096C22.4463 16.096 24.4382 14.104 24.4382 11.6623C24.4382 9.22048 22.4463 7.22852 20.0045 7.22852C17.5627 7.22852 15.5547 9.20442 15.5547 11.6623C15.5547 14.104 17.5467 16.096 20.0045 16.096ZM20.0045 8.75462C21.6109 8.75462 22.9121 10.0558 22.9121 11.6623C22.9121 13.2687 21.6109 14.5699 20.0045 14.5699C18.3981 14.5699 17.0969 13.2687 17.0969 11.6623C17.0969 10.0558 18.3981 8.75462 20.0045 8.75462Z" fill="#E27614"/>
<path d="M25.184 23.1307C26.0194 23.9661 27.1439 24.4319 28.3165 24.4319C30.7583 24.4319 32.7503 22.44 32.7503 19.9982C32.7503 17.5564 30.7583 15.5645 28.3165 15.5645C25.8748 15.5645 23.8828 17.5564 23.8828 19.9982C23.8828 21.1709 24.3487 22.2954 25.184 23.1307ZM28.3165 17.0906C29.923 17.0906 31.2242 18.3918 31.2242 19.9982C31.2242 21.6046 29.923 22.9058 28.3165 22.9058C27.5455 22.9058 26.8065 22.6006 26.2603 22.0544C25.7141 21.5082 25.4089 20.7693 25.4089 19.9982C25.4089 18.3918 26.7262 17.0906 28.3165 17.0906Z" fill="#E27614"/>
</svg>
