<svg width="56" height="41" viewBox="0 0 56 41" fill="none" xmlns="http://www.w3.org/2000/svg">
<path d="M55.9866 25.1106C55.9866 33.4368 49.2758 40.0233 41.0739 40.0233H40.0797C37.8428 40.0233 36.103 38.2835 36.103 36.0466C36.103 33.9339 37.8428 32.0698 40.0797 32.0698H41.0739C44.802 32.0698 48.0331 28.963 48.0331 25.1106V24.1164H40.0797C35.6059 24.1164 32.1262 20.6368 32.1262 16.163V8.20954C32.1262 3.86 35.6059 0.2561 40.0797 0.2561H48.0331C52.3827 0.2561 55.9866 3.86 55.9866 8.20954V12.1863V16.163V25.1106ZM24.1728 25.1106C24.1728 33.4368 17.4621 40.0233 9.26012 40.0233H8.26594C6.02903 40.0233 4.28922 38.2835 4.28922 36.0466C4.28922 33.9339 6.02903 32.0698 8.26594 32.0698H9.26012C12.9883 32.0698 16.2194 28.963 16.2194 25.1106V24.1164H8.26594C3.79213 24.1164 0.3125 20.6368 0.3125 16.163V8.20954C0.3125 3.86 3.79213 0.2561 8.26594 0.2561H16.2194C20.5689 0.2561 24.1728 3.86 24.1728 8.20954V12.1863V16.163V25.1106Z" fill="#E27614"/>
</svg>
