<svg width="34" height="40" viewBox="0 0 34 40" fill="none" xmlns="http://www.w3.org/2000/svg">
<path d="M32.8561 0H0.680358C0.311825 0 0 0.297661 0 0.680369V39.3196C0 39.6882 0.297651 40 0.680358 40H32.8561C33.2247 40 33.5365 39.7023 33.5365 39.3196V0.680369C33.5365 0.311836 33.2388 0 32.8561 0ZM32.1899 38.6393H1.36073V1.36074H32.1899V38.6393Z" fill="#E27614"/>
<path d="M3.11788 7.25611H6.88825C7.25678 7.25611 7.56861 6.95845 7.56861 6.57574V2.80537C7.56861 2.43684 7.27095 2.125 6.88825 2.125H3.11788C2.74934 2.125 2.4375 2.42266 2.4375 2.80537V6.58992C2.45167 6.95845 2.74934 7.25611 3.11788 7.25611ZM3.79823 3.47156H6.22204V5.89538H3.79823V3.47156Z" fill="#E27614"/>
<path d="M3.11788 13.3811H6.88825C7.25678 13.3811 7.56861 13.0835 7.56861 12.7007V8.93037C7.56861 8.56184 7.27095 8.25 6.88825 8.25H3.11788C2.74934 8.25 2.4375 8.54766 2.4375 8.93037V12.7149C2.45167 13.0835 2.74934 13.3811 3.11788 13.3811ZM3.79823 9.59656H6.22204V12.0204H3.79823V9.59656Z" fill="#E27614"/>
<path d="M3.11788 19.5047H6.88825C7.25678 19.5047 7.56861 19.207 7.56861 18.8243V15.0397C7.56861 14.6712 7.27095 14.3594 6.88825 14.3594H3.11788C2.74934 14.3594 2.4375 14.657 2.4375 15.0397V18.8243C2.45167 19.207 2.74934 19.5047 3.11788 19.5047ZM3.79823 15.7201H6.22204V18.1439H3.79823V15.7201Z" fill="#E27614"/>
<path d="M3.11788 25.6277H6.88825C7.25678 25.6277 7.56861 25.33 7.56861 24.9473V21.1628C7.56861 20.7943 7.27095 20.4824 6.88825 20.4824H3.11788C2.74934 20.4824 2.4375 20.7801 2.4375 21.1628V24.9473C2.45167 25.33 2.74934 25.6277 3.11788 25.6277ZM3.79823 21.8432H6.22204V24.267H3.79823V21.8432Z" fill="#E27614"/>
<path d="M3.11788 31.7488H6.88825C7.25678 31.7488 7.56861 31.4511 7.56861 31.0684V27.2839C7.56861 26.9154 7.27095 26.6035 6.88825 26.6035H3.11788C2.74934 26.6035 2.4375 26.9012 2.4375 27.2839V31.0684C2.45167 31.4511 2.74934 31.7488 3.11788 31.7488ZM3.79823 27.9643H6.22204V30.3881H3.79823V27.9643Z" fill="#E27614"/>
<path d="M3.11788 37.8738H6.88825C7.25678 37.8738 7.56861 37.5761 7.56861 37.1934V33.4089C7.56861 33.0404 7.27095 32.7285 6.88825 32.7285H3.11788C2.74934 32.7285 2.4375 33.0262 2.4375 33.4089V37.1934C2.45167 37.5761 2.74934 37.8738 3.11788 37.8738ZM3.79823 34.0893H6.22204V36.5131H3.79823V34.0893Z" fill="#E27614"/>
<path d="M26.6335 7.25611H30.4039C30.7724 7.25611 31.0842 6.95845 31.0842 6.57574V2.80537C31.0842 2.43684 30.7866 2.125 30.4039 2.125H26.6335C26.265 2.125 25.9531 2.42266 25.9531 2.80537V6.58992C25.9673 6.95845 26.265 7.25611 26.6335 7.25611ZM27.3139 3.47156H29.7377V5.89538H27.3139V3.47156Z" fill="#E27614"/>
<path d="M26.6335 13.3811H30.4039C30.7724 13.3811 31.0842 13.0835 31.0842 12.7007V8.93037C31.0842 8.56184 30.7866 8.25 30.4039 8.25H26.6335C26.265 8.25 25.9531 8.54766 25.9531 8.93037V12.7149C25.9673 13.0835 26.265 13.3811 26.6335 13.3811ZM27.3139 9.59656H29.7377V12.0204H27.3139V9.59656Z" fill="#E27614"/>
<path d="M26.6335 19.5047H30.4039C30.7724 19.5047 31.0842 19.207 31.0842 18.8243V15.0397C31.0842 14.6712 30.7866 14.3594 30.4039 14.3594H26.6335C26.265 14.3594 25.9531 14.657 25.9531 15.0397V18.8243C25.9673 19.207 26.265 19.5047 26.6335 19.5047ZM27.3139 15.7201H29.7377V18.1439H27.3139V15.7201Z" fill="#E27614"/>
<path d="M26.6335 25.6277H30.4039C30.7724 25.6277 31.0842 25.33 31.0842 24.9473V21.1628C31.0842 20.7943 30.7866 20.4824 30.4039 20.4824H26.6335C26.265 20.4824 25.9531 20.7801 25.9531 21.1628V24.9473C25.9673 25.33 26.265 25.6277 26.6335 25.6277ZM27.3139 21.8432H29.7377V24.267H27.3139V21.8432Z" fill="#E27614"/>
<path d="M26.6335 31.7488H30.4039C30.7724 31.7488 31.0842 31.4511 31.0842 31.0684V27.2839C31.0842 26.9154 30.7866 26.6035 30.4039 26.6035H26.6335C26.265 26.6035 25.9531 26.9012 25.9531 27.2839V31.0684C25.9673 31.4511 26.265 31.7488 26.6335 31.7488ZM27.3139 27.9643H29.7377V30.3881H27.3139V27.9643Z" fill="#E27614"/>
<path d="M26.6335 37.8738H30.4039C30.7724 37.8738 31.0842 37.5761 31.0842 37.1934V33.4089C31.0842 33.0404 30.7866 32.7285 30.4039 32.7285H26.6335C26.265 32.7285 25.9531 33.0262 25.9531 33.4089V37.1934C25.9673 37.5761 26.265 37.8738 26.6335 37.8738ZM27.3139 34.0893H29.7377V36.5131H27.3139V34.0893Z" fill="#E27614"/>
<path d="M9.35223 18.3263H24.1928C24.5613 18.3263 24.8731 18.0286 24.8731 17.6459V2.80537C24.8731 2.43684 24.5755 2.125 24.1928 2.125H9.35223C8.9837 2.125 8.67188 2.42266 8.67188 2.80537V17.6459C8.68605 18.0144 8.9837 18.3263 9.35223 18.3263ZM10.0326 3.47156H23.5266V16.9655H10.0326V3.47156Z" fill="#E27614"/>
<path d="M9.35223 37.8732H24.1928C24.5613 37.8732 24.8731 37.5755 24.8731 37.1928V22.3522C24.8731 21.9837 24.5755 21.6719 24.1928 21.6719H9.35223C8.9837 21.6719 8.67188 21.9695 8.67188 22.3522V37.1928C8.68605 37.5755 8.9837 37.8732 9.35223 37.8732ZM10.0326 23.0326H23.5266V36.5266H10.0326V23.0326Z" fill="#E27614"/>
</svg>
