<svg width="44" height="40" viewBox="0 0 44 40" fill="none" xmlns="http://www.w3.org/2000/svg">
<path d="M43.0347 39.2833V0.731986C43.0347 0.335494 42.7144 0 42.3027 0H0.731994C0.335501 0 0 0.320244 0 0.731986V0.747236V9.68357V39.268C0 39.6645 0.320251 40 0.731994 40H42.3027C42.6992 40 43.0347 39.6798 43.0347 39.2833ZM37.0873 1.46397H41.5707V8.96683H37.0873V1.46397ZM35.6386 1.46397V8.96683H31.1552V1.46397H35.6386ZM25.2078 1.46397H29.6912V8.96683H25.2078V1.46397ZM19.2756 1.46397H23.7591V8.96683H19.2756V1.46397ZM13.3282 1.46397H17.8117V8.96683H13.3282V1.46397ZM7.39611 1.46397H11.8795V8.96683H7.39611V1.46397ZM1.46399 1.46397H5.94739V8.96683H1.46399V1.46397ZM41.5707 38.5513H1.46399V10.4308H6.49639C6.55739 10.4461 6.60312 10.4461 6.66412 10.4461C6.72512 10.4461 6.78613 10.4461 6.83188 10.4308H12.4285C12.4895 10.4461 12.5353 10.4461 12.5963 10.4461C12.6573 10.4461 12.7183 10.4461 12.764 10.4308H18.3606C18.4216 10.4461 18.4674 10.4461 18.5284 10.4461C18.5894 10.4461 18.6504 10.4461 18.6962 10.4308H24.2928C24.3538 10.4461 24.3995 10.4461 24.4605 10.4461C24.5215 10.4461 24.5825 10.4461 24.6283 10.4308H30.2249C30.2859 10.4461 30.3317 10.4461 30.3927 10.4461C30.4537 10.4461 30.5147 10.4461 30.5604 10.4308H36.1571C36.2181 10.4461 36.2638 10.4461 36.3248 10.4461C36.3858 10.4461 36.4468 10.4461 36.4926 10.4308H41.525V38.5513H41.5707Z" fill="#E27614"/>
<path d="M30.7846 23.8809L12.973 13.5873C12.7443 13.4501 12.4698 13.4501 12.241 13.5873C12.0123 13.7246 11.875 13.9533 11.875 14.2125V34.7844C11.875 35.0437 12.0123 35.2877 12.241 35.4097C12.3478 35.4707 12.485 35.5012 12.607 35.5012C12.729 35.5012 12.8663 35.4707 12.973 35.4097L30.7846 25.1313C31.0134 24.9941 31.1507 24.7654 31.1507 24.5061C31.1507 24.2469 31.0134 24.0029 30.7846 23.8809ZM13.3237 33.5339V15.4783L28.9547 24.5061L13.3237 33.5339Z" fill="#E27614"/>
</svg>
